<svg width="56" height="56" viewBox="0 0 56 56" fill="none" xmlns="http://www.w3.org/2000/svg">
<g clip-path="url(#clip0)">
<path d="M33.3737 16.3994L29.6399 27.725V49.3076H52.5992V27.725L48.8653 16.3994H42.7594V8.19971C42.7594 3.67839 39.081 0 34.5597 0H21.4401C16.9188 0 13.2404 3.67839 13.2404 8.19971V9.83966H3.40076V29.6283H7.30699L9.96053 34.9353V51.0802L14.8804 56L19.8002 51.0802V47.6677H23.0801V44.3878H19.8002V41.1079H23.0801V37.828H19.8002V34.9353L22.4537 29.6283H26.36V9.83966H16.5203V8.19971C16.5203 5.48692 18.7273 3.27989 21.4401 3.27989H34.5597C37.2725 3.27989 39.4795 5.48692 39.4795 8.19971V16.3994H33.3737ZM13.2405 13.1195H16.5204V16.3994H13.2405V13.1195ZM14.8805 51.3616L13.2405 49.7216V36.1881H16.5204V49.7216L14.8805 51.3616ZM17.1468 32.9082H12.6141L10.9741 29.6283H18.7867L17.1468 32.9082ZM23.0802 26.3484H6.68075V13.1195H9.96064V19.6793H19.8003V13.1195H23.0802V26.3484ZM49.3193 28.2517V46.0277H32.9198V28.2517L35.7458 19.6793H46.4932L49.3193 28.2517Z" fill="white"/>
<path d="M46.0395 26.3484H36.1998V42.7478H46.0395V26.3484ZM42.7596 29.6283V32.9082H39.4797V29.6283H42.7596ZM39.4797 39.468V36.1881H42.7596V39.468H39.4797Z" fill="white"/>
</g>
<defs>
<clipPath id="clip0">
<rect width="56" height="56" fill="white"/>
</clipPath>
</defs>
</svg>
