<svg width="56" height="56" viewBox="0 0 56 56" fill="none" xmlns="http://www.w3.org/2000/svg">
<path d="M28 56C43.4174 56 56 43.4165 56 28C56 12.5826 43.4165 0 28 0C12.5826 0 0 12.5835 0 28C0 43.4174 12.5835 56 28 56ZM28 3.28125C41.63 3.28125 52.7188 14.37 52.7188 28C52.7188 41.63 41.63 52.7188 28 52.7188C14.37 52.7188 3.28125 41.63 3.28125 28C3.28125 14.37 14.37 3.28125 28 3.28125Z" fill="white"/>
<path d="M19.7969 32.9219H23.0781V42.7656H32.9219V32.9219H36.2031V42.7656H46.0469V13.2344H36.2031V23.0781H32.9219V13.2344H23.0781V23.0781H19.7969V13.2344H9.95312V42.7656H19.7969V32.9219ZM16.5156 39.4844H13.2344V16.5156H16.5156V26.3594H26.3594V16.5156H29.6406V26.3594H39.4844V16.5156H42.7656V39.4844H39.4844V29.6406H29.6406V39.4844H26.3594V29.6406H16.5156V39.4844Z" fill="white"/>
</svg>
