<svg width="56" height="56" viewBox="0 0 56 56" fill="none" xmlns="http://www.w3.org/2000/svg">
<path d="M28 56C43.4174 56 56 43.4165 56 28C56 12.5826 43.4165 0 28 0C12.5826 0 0 12.5835 0 28C0 43.4174 12.5835 56 28 56ZM28 3.28125C41.63 3.28125 52.7188 14.37 52.7188 28C52.7188 41.63 41.63 52.7188 28 52.7188C14.37 52.7188 3.28125 41.63 3.28125 28C3.28125 14.37 14.37 3.28125 28 3.28125Z" fill="white"/>
<path d="M28 49.4375C39.7729 49.4375 49.4375 39.7739 49.4375 28C49.4375 16.2271 39.7739 6.5625 28 6.5625C16.2271 6.5625 6.5625 16.2261 6.5625 28C6.5625 39.7729 16.2261 49.4375 28 49.4375ZM10.7308 33.6065L17.2653 34.6072L21.048 38.6345L21.794 45.0634C16.5686 43.157 12.4583 38.9145 10.7308 33.6065ZM46.1562 28C46.1562 28.7347 46.1112 29.459 46.026 30.171L39.4844 31.1729V22.3148L45.982 25.4907C46.096 26.3114 46.1562 27.1487 46.1562 28ZM32.7341 36.2031H23.266L19.7969 32.5098V20.9169C25.0829 19.0527 30.9111 19.0482 36.2031 20.9006V32.5098L32.7341 36.2031ZM16.5156 31.1729L9.97402 30.171C9.88881 29.459 9.84375 28.7347 9.84375 28C9.84375 27.1511 9.90369 26.3162 10.0169 25.498C11.2384 24.9106 13.7606 23.6938 16.5156 22.3418V31.1729ZM25.1988 45.94L24.4498 39.4844H31.5502L30.8012 45.94C29.8879 46.0821 28.9524 46.1562 28 46.1562C27.0476 46.1562 26.1121 46.0821 25.1988 45.94ZM34.2062 45.0634L34.9521 38.6345L38.7348 34.6072L45.2693 33.6065C43.5417 38.9145 39.4314 43.157 34.2062 45.0634ZM28 9.84375C35.645 9.84375 42.2009 14.5935 44.8734 21.2967C41.8228 20.0628 36.698 16.2277 28.0661 16.2158C28.0533 16.2158 28.041 16.2158 28.0282 16.2158C20.5249 16.2158 16.0138 18.9505 11.1155 21.3242C13.7809 14.6064 20.3446 9.84375 28 9.84375Z" fill="white"/>
<path d="M28 23.0781C25.2861 23.0781 23.0781 25.2861 23.0781 28C23.0781 30.7139 25.2861 32.9219 28 32.9219C30.7139 32.9219 32.9219 30.7139 32.9219 28C32.9219 25.2861 30.7139 23.0781 28 23.0781ZM28 29.6406C27.0954 29.6406 26.3594 28.9046 26.3594 28C26.3594 27.0954 27.0954 26.3594 28 26.3594C28.9046 26.3594 29.6406 27.0954 29.6406 28C29.6406 28.9046 28.9046 29.6406 28 29.6406Z" fill="white"/>
</svg>
