<svg width="56" height="56" viewBox="0 0 56 56" fill="none" xmlns="http://www.w3.org/2000/svg">
<g clip-path="url(#clip0)">
<path d="M56 20.9147L27.9737 6.30859L0 20.9198L13.2415 27.8717V38.9305H42.8165V27.8694L49.3645 24.4152V36.9362L46.0676 44.1295L51.0015 49.6913L55.9354 44.1295L52.6385 36.9362V22.688L56 20.9147ZM51.0015 44.7577L49.9331 43.5533L51.0015 41.2223L52.0699 43.5533L51.0015 44.7577ZM39.5425 35.6565H16.5155V25.0302C20.1213 23.3908 23.9709 22.5606 27.9745 22.5606C31.984 22.5606 35.9616 23.4124 39.5425 25.0315V35.6565ZM42.8165 24.1677V22.9837C42.2887 22.7882 36.5574 19.2866 27.9745 19.2866C19.3964 19.2866 13.8925 22.7401 13.2415 22.9837V24.1739L7.0574 20.9272L27.9753 10.0014L48.9497 20.9324L42.8165 24.1677Z" fill="#CD1C27"/>
</g>
<defs>
<clipPath id="clip0">
<rect width="56" height="56" fill="white"/>
</clipPath>
</defs>
</svg>
