<svg width="48" height="48" viewBox="0 0 48 48" fill="none" xmlns="http://www.w3.org/2000/svg">
<path d="M24 48C10.7851 48 0 37.2142 0 24C0 10.7851 10.7858 0 24 0C37.2149 0 48 10.7858 48 24C48 37.2149 37.2142 48 24 48ZM24 2.8125C12.3172 2.8125 2.8125 12.3172 2.8125 24C2.8125 35.6828 12.3172 45.1875 24 45.1875C35.6828 45.1875 45.1875 35.6828 45.1875 24C45.1875 12.3172 35.6828 2.8125 24 2.8125Z" fill="#CD1C27"/>
<path d="M24 42.375C13.9089 42.375 5.625 34.0919 5.625 24C5.625 13.9089 13.9081 5.625 24 5.625C34.0911 5.625 42.375 13.9081 42.375 24C42.375 34.0911 34.0919 42.375 24 42.375ZM38.8022 28.8055L33.2012 29.6633L29.9588 33.1153L29.3195 38.6257C33.7984 36.9917 37.3215 33.3553 38.8022 28.8055ZM8.4375 24C8.4375 24.6297 8.47613 25.2505 8.54916 25.8608L14.1562 26.7196V19.127L8.58684 21.8492C8.48915 22.5526 8.4375 23.2703 8.4375 24ZM19.9422 31.0312H28.0577L31.0312 27.8655V17.9288C26.5004 16.3309 21.5047 16.327 16.9688 17.9148V27.8655L19.9422 31.0312ZM33.8438 26.7196L39.4508 25.8608C39.5239 25.2505 39.5625 24.6297 39.5625 24C39.5625 23.2724 39.5111 22.5567 39.4141 21.8555C38.3671 21.3519 36.2052 20.309 33.8438 19.1501V26.7196ZM26.401 39.3772L27.043 33.8438H20.957L21.599 39.3772C22.3818 39.4989 23.1836 39.5625 24 39.5625C24.8164 39.5625 25.6182 39.4989 26.401 39.3772ZM18.6804 38.6257L18.0411 33.1153L14.7987 29.6633L9.19772 28.8055C10.6785 33.3553 14.2016 36.9917 18.6804 38.6257ZM24 8.4375C17.4472 8.4375 11.8278 12.5087 9.53709 18.2543C12.1519 17.1967 16.5445 13.9095 23.9434 13.8993C23.9543 13.8993 23.9648 13.8993 23.9758 13.8993C30.4073 13.8993 34.2739 16.2433 38.4725 18.2779C36.1878 12.5198 30.5617 8.4375 24 8.4375Z" fill="#CD1C27"/>
<path d="M24 19.7812C26.3262 19.7812 28.2188 21.6738 28.2188 24C28.2188 26.3262 26.3262 28.2188 24 28.2188C21.6738 28.2188 19.7812 26.3262 19.7812 24C19.7812 21.6738 21.6738 19.7812 24 19.7812ZM24 25.4062C24.7754 25.4062 25.4062 24.7754 25.4062 24C25.4062 23.2246 24.7754 22.5938 24 22.5938C23.2246 22.5938 22.5938 23.2246 22.5938 24C22.5938 24.7754 23.2246 25.4062 24 25.4062Z" fill="#CD1C27"/>
</svg>
