<svg width="56" height="56" viewBox="0 0 56 56" fill="none" xmlns="http://www.w3.org/2000/svg">
<path d="M20.9807 17.9445C19.743 17.9445 18.556 18.4361 17.6808 19.3113C16.8057 20.1865 16.314 21.3735 16.314 22.6111C16.314 23.8488 16.8057 25.0358 17.6808 25.911C18.556 26.7861 19.743 27.2778 20.9807 27.2778L21.016 27.2742V28.4443C21.0154 28.7536 20.8923 29.0499 20.6736 29.2686C20.4549 29.4873 20.1586 29.6104 19.8493 29.611C19.2305 29.611 18.637 29.8568 18.1994 30.2944C17.7618 30.732 17.516 31.3255 17.516 31.9443C17.516 32.5632 17.7618 33.1567 18.1994 33.5942C18.637 34.0318 19.2305 34.2777 19.8493 34.2777C21.396 34.2762 22.8789 33.6612 23.9725 32.5675C25.0662 31.4739 25.6812 29.991 25.6827 28.4443V22.611C25.6687 22.4923 25.645 22.3749 25.6119 22.26C25.527 21.089 25.0025 19.9934 24.1435 19.193C23.2846 18.3926 22.1547 17.9466 20.9807 17.9445ZM27.9795 2.33787C22.1251 2.33798 16.4942 4.58649 12.25 8.61899C8.00571 12.6515 5.47222 18.16 5.17275 24.0068C4.87327 29.8536 6.83068 35.5921 10.6407 40.0372C14.4507 44.4822 19.8224 47.2943 25.6462 47.8926V51.338C25.6459 51.692 25.7262 52.0414 25.881 52.3598C26.0359 52.6781 26.2612 52.957 26.5399 53.1753C26.8186 53.3936 27.1433 53.5456 27.4895 53.6197C27.8357 53.6938 28.1942 53.6881 28.5378 53.603C34.4183 52.1478 39.7019 48.9025 43.6587 44.3154C47.6155 39.7283 50.0504 34.0257 50.627 27.9953C51.0474 24.7806 50.7747 21.5132 49.8272 18.4127C48.8798 15.3122 47.2795 12.4504 45.1341 10.0198C42.9886 7.58918 40.3476 5.64604 37.3887 4.321C34.4298 2.99595 31.2215 2.31972 27.9795 2.33775V2.33787ZM45.9877 27.4919C45.5595 32.0558 43.8652 36.4094 41.0957 40.0621C38.3263 43.7149 34.5917 46.5216 30.3129 48.166V45.6777C30.3131 45.3713 30.2529 45.0678 30.1357 44.7846C30.0185 44.5014 29.8466 44.2441 29.6299 44.0274C29.4132 43.8107 29.1559 43.6388 28.8727 43.5216C28.5895 43.4044 28.286 43.3442 27.9796 43.3444C24.386 43.3439 20.8733 42.2779 17.8855 40.2811C14.8978 38.2843 12.5693 35.4464 11.1944 32.1262C9.8195 28.806 9.46 25.1528 10.1613 21.6283C10.8627 18.1038 12.5934 14.8665 15.1346 12.3256C17.6758 9.7847 20.9134 8.05441 24.4379 7.3535C27.9625 6.6526 31.6157 7.01255 34.9357 8.38786C38.2557 9.76316 41.0933 12.0921 43.0898 15.08C45.0862 18.068 46.1518 21.5809 46.1518 25.1745C46.1456 25.9496 46.0908 26.7236 45.9877 27.4919ZM34.9807 17.9445C33.743 17.9445 32.556 18.4361 31.6808 19.3113C30.8057 20.1865 30.314 21.3735 30.314 22.6111C30.314 23.8488 30.8057 25.0358 31.6808 25.911C32.556 26.7861 33.743 27.2778 34.9807 27.2778L35.016 27.2742V28.4443C35.0154 28.7536 34.8923 29.0499 34.6736 29.2686C34.4549 29.4873 34.1586 29.6104 33.8493 29.611C33.2305 29.611 32.637 29.8568 32.1994 30.2944C31.7618 30.732 31.516 31.3255 31.516 31.9443C31.516 32.5632 31.7618 33.1567 32.1994 33.5942C32.637 34.0318 33.2305 34.2777 33.8493 34.2777C35.396 34.2762 36.8789 33.6612 37.9725 32.5675C39.0662 31.4739 39.6812 29.991 39.6827 28.4443V22.611C39.6687 22.4923 39.645 22.3749 39.6119 22.26C39.527 21.089 39.0025 19.9934 38.1435 19.193C37.2846 18.3926 36.1547 17.9466 34.9807 17.9445Z" fill="#CD1C27"/>
</svg>
