<svg width="56" height="56" viewBox="0 0 56 56" fill="none" xmlns="http://www.w3.org/2000/svg">
<path d="M44.3333 10.5H11.6666C9.81011 10.5 8.02963 11.2375 6.71688 12.5503C5.40412 13.863 4.66663 15.6435 4.66663 17.5V38.5C4.66663 40.3565 5.40412 42.137 6.71688 43.4497C8.02963 44.7625 9.81011 45.5 11.6666 45.5H44.3333C46.1898 45.5 47.9703 44.7625 49.283 43.4497C50.5958 42.137 51.3333 40.3565 51.3333 38.5V17.5C51.3333 15.6435 50.5958 13.863 49.283 12.5503C47.9703 11.2375 46.1898 10.5 44.3333 10.5ZM46.6666 38.5C46.6666 39.1188 46.4208 39.7123 45.9832 40.1499C45.5456 40.5875 44.9521 40.8333 44.3333 40.8333H11.6666C11.0478 40.8333 10.4543 40.5875 10.0167 40.1499C9.57913 39.7123 9.33329 39.1188 9.33329 38.5V17.5C9.33329 16.8812 9.57913 16.2877 10.0167 15.8501C10.4543 15.4125 11.0478 15.1667 11.6666 15.1667H44.3333C44.9521 15.1667 45.5456 15.4125 45.9832 15.8501C46.4208 16.2877 46.6666 16.8812 46.6666 17.5V38.5ZM37.3333 24.5C36.0928 24.5087 34.8768 24.8469 33.81 25.48C32.7471 24.8494 31.5363 24.5113 30.3005 24.5003C29.0647 24.4892 27.848 24.8055 26.7741 25.4171C25.7002 26.0286 24.8073 26.9135 24.1862 27.9819C23.5651 29.0504 23.2379 30.2642 23.2379 31.5C23.2379 32.7358 23.5651 33.9496 24.1862 35.0181C24.8073 36.0865 25.7002 36.9714 26.7741 37.5829C27.848 38.1945 29.0647 38.5108 30.3005 38.4997C31.5363 38.4887 32.7471 38.1506 33.81 37.52C34.7382 38.0707 35.7811 38.3993 36.8574 38.4802C37.9336 38.561 39.014 38.3919 40.014 37.9861C41.0141 37.5802 41.9067 36.9486 42.6223 36.1406C43.3378 35.3326 43.8568 34.3701 44.1387 33.3283C44.4206 32.2865 44.4578 31.1937 44.2474 30.1351C44.037 29.0765 43.5847 28.081 42.9257 27.2262C42.2668 26.3714 41.4192 25.6806 40.449 25.2076C39.4789 24.7347 38.4125 24.4925 37.3333 24.5ZM30.73 33.8333C30.598 33.8446 30.4653 33.8446 30.3333 33.8333C29.7145 33.8333 29.121 33.5875 28.6834 33.1499C28.2458 32.7123 28 32.1188 28 31.5C28 30.8812 28.2458 30.2877 28.6834 29.8501C29.121 29.4125 29.7145 29.1667 30.3333 29.1667C30.4653 29.1554 30.598 29.1554 30.73 29.1667C30.202 30.6133 30.202 32.2 30.73 33.6467V33.8333ZM37.3333 33.8333C36.8718 33.8333 36.4207 33.6965 36.037 33.4401C35.6532 33.1837 35.3542 32.8193 35.1776 32.3929C35.001 31.9666 34.9548 31.4974 35.0448 31.0448C35.1348 30.5922 35.3571 30.1764 35.6834 29.8501C36.0097 29.5238 36.4255 29.3015 36.8781 29.2115C37.3307 29.1215 37.7999 29.1677 38.2262 29.3443C38.6526 29.5209 39.017 29.82 39.2734 30.2037C39.5298 30.5874 39.6666 31.0385 39.6666 31.5C39.6666 32.1188 39.4208 32.7123 38.9832 33.1499C38.5456 33.5875 37.9521 33.8333 37.3333 33.8333Z" fill="#CD1C27"/>
</svg>
