<svg width="56" height="56" viewBox="0 0 56 56" fill="none" xmlns="http://www.w3.org/2000/svg">
<path d="M33.8005 27.2379L31.4803 24.9177C30.5506 25.8474 29.3146 26.3593 28 26.3593C26.6853 26.3593 25.4493 25.8473 24.5196 24.9177L22.1995 27.2379C23.7488 28.7873 25.8088 29.6405 28 29.6405C30.1911 29.6405 32.251 28.7873 33.8005 27.2379Z" fill="#D23842"/>
<path d="M18.1562 36.3125C13.633 36.3125 9.95312 39.9924 9.95312 44.5156V56H46.0469V44.5156C46.0469 39.9924 42.367 36.3125 37.8438 36.3125H36.2031V33.7087C40.1575 31.0566 42.7656 26.5461 42.7656 21.4375V14.7656C42.7656 6.62386 36.1418 0 28 0C19.8582 0 13.2344 6.62386 13.2344 14.7656V21.4375C13.2344 26.5462 15.8425 31.0567 19.7969 33.7087V36.3125H18.1562ZM13.2344 44.5156C13.2344 41.8017 15.4423 39.5938 18.1562 39.5938H20.758C21.6655 40.5013 24.739 43.5749 26.1229 44.9587L23.5362 52.7188H13.2344V44.5156ZM28 49.7038L29.0049 52.7188H26.995L28 49.7038ZM37.8438 39.5938C40.5577 39.5938 42.7656 41.8017 42.7656 44.5156V52.7188H32.4638L29.8771 44.9587C30.7617 44.0741 33.862 40.9738 35.242 39.5938H37.8438ZM28 3.28125C33.7755 3.28125 38.5681 7.56689 39.3667 13.125H32.9219V8.82973L24.3315 13.125H16.6333C17.4319 7.56689 22.2245 3.28125 28 3.28125ZM16.5156 21.4375V16.4062H25.106L29.6406 14.139V16.4062H39.4844V21.4375C39.4844 27.77 34.3325 32.9219 28 32.9219C21.6675 32.9219 16.5156 27.77 16.5156 21.4375ZM28 36.2031C29.7251 36.2031 31.3817 35.9048 32.9219 35.3585V37.2736C32.3707 37.8247 28.4273 41.7681 28 42.1954C27.5614 41.7569 23.6217 37.8172 23.0781 37.2736V35.3585C24.6183 35.9048 26.2749 36.2031 28 36.2031Z" fill="#D23842"/>
<path d="M39.4844 46.1562H32.9219V49.4375H39.4844V46.1562Z" fill="#D23842"/>
</svg>
