<svg width="520" height="1080" viewBox="0 0 520 1080" fill="none" xmlns="http://www.w3.org/2000/svg">
<path d="M-20 1080C277.335 1080 520 837.319 520 540C520 242.665 277.319 0 -20 0C-317.335 0 -560 242.681 -560 540C-560 837.335 -317.319 1080 -20 1080ZM-20 63.2812C242.864 63.2812 456.719 277.136 456.719 540C456.719 802.864 242.864 1016.72 -20 1016.72C-282.864 1016.72 -496.719 802.864 -496.719 540C-496.719 277.136 -282.864 63.2812 -20 63.2812Z" fill="white"/>
<path d="M-20 953.438C207.049 953.438 393.438 767.068 393.438 540C393.438 312.951 207.068 126.562 -20 126.562C-247.049 126.562 -433.438 312.932 -433.438 540C-433.438 767.049 -247.068 953.438 -20 953.438ZM-353.049 648.124L-227.027 667.425L-154.074 745.095L-139.688 869.079C-240.463 832.313 -319.734 750.495 -353.049 648.124ZM330.156 540C330.156 554.169 329.287 568.137 327.644 581.869L201.484 601.191V430.357L326.796 491.607C328.994 507.433 330.156 523.583 330.156 540ZM71.3 698.203H-111.298L-178.203 626.974V403.397C-76.2592 367.445 36.1431 367.358 138.203 403.083V626.974L71.3 698.203ZM-241.484 601.191L-367.644 581.869C-369.287 568.137 -370.156 554.169 -370.156 540C-370.156 523.629 -369 507.526 -366.817 491.748C-343.26 480.419 -294.617 456.952 -241.484 430.878V601.191ZM-74.0232 885.986L-88.4682 761.484H48.4682L34.0232 885.986C16.4099 888.726 -1.63156 890.156 -20 890.156C-38.3684 890.156 -56.4099 888.726 -74.0232 885.986ZM99.6902 869.079L114.076 745.095L187.029 667.425L313.051 648.124C279.734 750.495 200.463 832.313 99.6902 869.079ZM-20 189.844C127.439 189.844 253.875 281.445 305.415 410.723C246.583 386.925 147.748 312.964 -18.7259 312.734C-18.9727 312.734 -19.209 312.734 -19.4558 312.734C-164.163 312.734 -251.162 365.475 -345.631 411.252C-294.225 281.694 -167.639 189.844 -20 189.844Z" fill="white"/>
<path d="M-20 445.078C-72.3399 445.078 -114.922 487.66 -114.922 540C-114.922 592.34 -72.3399 634.922 -20 634.922C32.3399 634.922 74.9219 592.34 74.9219 540C74.9219 487.66 32.3399 445.078 -20 445.078ZM-20 571.641C-37.4466 571.641 -51.6406 557.447 -51.6406 540C-51.6406 522.553 -37.4466 508.359 -20 508.359C-2.55336 508.359 11.6406 522.553 11.6406 540C11.6406 557.447 -2.55336 571.641 -20 571.641Z" fill="white"/>
</svg>
