<svg width="387" height="780" viewBox="0 0 387 780" fill="none" xmlns="http://www.w3.org/2000/svg">
<path d="M-100.769 249.941C-118.008 249.941 -134.541 256.789 -146.731 268.979C-158.921 281.169 -165.769 297.702 -165.769 314.941C-165.769 332.18 -158.921 348.713 -146.731 360.903C-134.541 373.093 -118.008 379.941 -100.769 379.941L-100.277 379.891V396.189C-100.286 400.496 -102.001 404.624 -105.046 407.67C-108.092 410.715 -112.22 412.43 -116.527 412.439C-125.147 412.439 -133.413 415.863 -139.508 421.958C-145.603 428.053 -149.027 436.319 -149.027 444.939C-149.027 453.558 -145.603 461.825 -139.508 467.92C-133.413 474.015 -125.147 477.439 -116.527 477.439C-94.9845 477.419 -74.3299 468.852 -59.0969 453.619C-43.8639 438.386 -35.2972 417.731 -35.2773 396.189V314.939C-35.4724 313.285 -35.8021 311.65 -36.2633 310.05C-37.4456 293.74 -44.7515 278.48 -56.7154 267.331C-68.6793 256.183 -84.4163 249.97 -100.769 249.941ZM-3.28522 32.5632C-84.8296 32.5647 -163.259 63.8832 -222.376 120.05C-281.492 176.217 -316.78 252.943 -320.951 334.38C-325.122 415.818 -297.858 495.747 -244.79 557.661C-191.722 619.574 -116.903 658.742 -35.7852 667.075V715.065C-35.7896 719.996 -34.671 724.863 -32.5142 729.297C-30.3574 733.731 -27.2191 737.616 -23.3373 740.656C-19.4555 743.697 -14.9323 745.814 -10.1106 746.846C-5.28897 747.878 -0.295593 747.798 4.49072 746.613C86.3978 726.344 159.99 681.142 215.103 617.25C270.216 553.358 304.131 473.93 312.162 389.935C318.017 345.159 314.219 299.648 301.022 256.462C287.825 213.277 265.536 173.416 235.653 139.561C205.77 105.706 168.985 78.6412 127.772 60.1853C86.5582 41.7293 41.8712 32.3104 -3.28522 32.5615V32.5632ZM247.543 382.922C241.578 446.491 217.979 507.13 179.405 558.008C140.83 608.885 88.8133 647.979 29.2154 670.884V636.225C29.2179 631.957 28.379 627.729 26.7466 623.785C25.1142 619.841 22.7203 616.257 19.7019 613.239C16.6835 610.22 13.0998 607.827 9.15555 606.194C5.21136 604.562 0.98407 603.723 -3.28458 603.725C-53.3379 603.719 -102.265 588.871 -143.88 561.058C-185.495 533.245 -217.928 493.717 -237.078 447.472C-256.228 401.227 -261.236 350.342 -251.467 301.251C-241.698 252.16 -217.592 207.068 -182.197 171.678C-146.802 136.287 -101.707 112.186 -52.6147 102.424C-3.52261 92.6611 47.3619 97.6748 93.6046 116.831C139.847 135.987 179.371 168.425 207.179 210.043C234.986 251.662 249.828 300.591 249.828 350.644C249.742 361.441 248.979 372.221 247.543 382.922ZM94.2307 249.941C76.9916 249.941 60.4586 256.789 48.2687 268.979C36.0789 281.169 29.2307 297.702 29.2307 314.941C29.2307 332.18 36.0789 348.713 48.2687 360.903C60.4586 373.093 76.9916 379.941 94.2307 379.941L94.7227 379.891V396.189C94.7141 400.496 92.9994 404.624 89.9537 407.67C86.9081 410.715 82.7798 412.43 78.4727 412.439C69.8532 412.439 61.5867 415.863 55.4918 421.958C49.3969 428.053 45.9727 436.319 45.9727 444.939C45.9727 453.558 49.3969 461.825 55.4918 467.92C61.5867 474.015 69.8532 477.439 78.4727 477.439C100.015 477.419 120.67 468.852 135.903 453.619C151.136 438.386 159.703 417.731 159.723 396.189V314.939C159.528 313.285 159.198 311.65 158.737 310.05C157.554 293.74 150.248 278.48 138.285 267.331C126.321 256.183 110.584 249.97 94.2307 249.941Z" fill="#F7FBFD"/>
</svg>
