<svg width="937" height="1476" viewBox="0 0 937 1476" fill="none" xmlns="http://www.w3.org/2000/svg">
<g clip-path="url(#clip0)">
<path d="M1179.55 603.216L633.951 288.216C602.944 270.314 566.095 265.462 531.511 274.729C496.927 283.996 467.44 306.622 449.538 337.629L247.038 688.37C229.136 719.377 224.285 756.226 233.551 790.81C242.818 825.394 265.444 854.881 296.451 872.783L842.047 1187.78C873.055 1205.69 909.904 1210.54 944.488 1201.27C979.072 1192 1008.56 1169.38 1026.46 1138.37L1228.96 787.629C1246.86 756.622 1251.71 719.773 1242.45 685.189C1233.18 650.604 1210.55 621.118 1179.55 603.216ZM948.519 1093.37C942.551 1103.71 932.722 1111.25 921.194 1114.34C909.666 1117.43 897.383 1115.81 887.047 1109.84L341.451 794.841C331.116 788.873 323.574 779.045 320.485 767.516C317.396 755.988 319.013 743.705 324.98 733.37L527.48 382.629C533.448 372.293 543.276 364.752 554.805 361.663C566.333 358.574 578.616 360.191 588.951 366.158L1134.55 681.158C1144.88 687.126 1152.43 696.954 1155.51 708.482C1158.6 720.011 1156.99 732.293 1151.02 742.629L948.519 1093.37ZM927.634 769.543C906.831 757.725 883.261 751.649 859.338 751.936C847.668 731.154 830.704 713.833 810.171 701.731C789.637 689.63 766.266 683.181 742.432 683.039C718.599 682.897 695.153 689.067 674.476 700.922C653.8 712.777 636.631 729.895 624.714 750.536C612.797 771.177 606.557 794.605 606.628 818.439C606.699 842.273 613.079 865.663 625.119 886.232C637.158 906.802 654.429 923.817 675.176 935.549C695.923 947.281 719.405 953.311 743.238 953.027C753.43 971.175 767.681 986.721 784.876 998.449C802.072 1010.18 821.747 1017.77 842.363 1020.64C862.979 1023.5 883.979 1021.56 903.721 1014.96C923.463 1008.37 941.413 997.298 956.167 982.616C970.922 967.935 982.082 950.04 988.775 930.331C995.468 910.622 997.513 889.633 994.75 869.002C991.988 848.372 984.492 828.66 972.849 811.406C961.206 794.153 945.731 779.825 927.634 769.543V769.543ZM727.346 861.752C725.033 860.668 722.816 859.388 720.721 857.927C710.385 851.96 702.843 842.131 699.754 830.603C696.665 819.075 698.282 806.792 704.249 796.456C710.217 786.12 720.046 778.578 731.574 775.489C743.102 772.401 755.385 774.018 765.721 779.985C768.034 781.07 770.25 782.349 772.346 783.81C749.577 802.881 734.277 829.381 729.146 858.635L727.346 861.752ZM837.634 925.427C829.926 920.977 823.711 914.341 819.775 906.359C815.838 898.377 814.357 889.406 815.519 880.582C816.681 871.758 820.433 863.477 826.301 856.786C832.169 850.094 839.89 845.293 848.487 842.989C857.084 840.686 866.171 840.983 874.599 843.844C883.027 846.705 890.417 852.001 895.835 859.062C901.253 866.123 904.456 874.632 905.038 883.513C905.62 892.394 903.555 901.248 899.105 908.956C893.138 919.292 883.309 926.834 871.781 929.923C860.253 933.012 847.97 931.395 837.634 925.427Z" fill="white"/>
</g>
<defs>
<clipPath id="clip0">
<rect width="1080" height="1080" fill="white" transform="translate(540.346 0.346191) rotate(30)"/>
</clipPath>
</defs>
</svg>
