<svg width="418" height="840" viewBox="0 0 418 840" fill="none" xmlns="http://www.w3.org/2000/svg">
<path d="M507.007 408.569L472.204 373.766C458.259 387.711 439.72 395.39 419.999 395.39C400.279 395.39 381.74 387.71 367.795 373.766L332.992 408.569C356.231 431.81 387.133 444.608 419.999 444.608C452.866 444.608 483.766 431.81 507.007 408.569Z" fill="#F7FBFD"/>
<path d="M272.344 544.688C204.496 544.688 149.297 599.886 149.297 667.734V840H690.703V667.734C690.703 599.886 635.504 544.688 567.656 544.688H543.047V505.631C602.362 465.849 641.484 398.191 641.484 321.562V221.484C641.484 99.3579 542.126 0 420 0C297.874 0 198.516 99.3579 198.516 221.484V321.562C198.516 398.193 237.638 465.851 296.953 505.631V544.688H272.344ZM198.516 667.734C198.516 627.026 231.635 593.906 272.344 593.906H311.369C324.983 607.52 371.085 653.623 391.844 674.381L353.043 790.781H198.516V667.734ZM420 745.557L435.074 790.781H404.924L420 745.557ZM567.656 593.906C608.365 593.906 641.484 627.026 641.484 667.734V790.781H486.957L448.156 674.381C461.426 661.111 507.929 614.608 528.631 593.906H567.656ZM420 49.2188C506.633 49.2188 578.522 113.503 590.5 196.875H493.828V132.446L364.972 196.875H249.5C261.478 113.503 333.367 49.2188 420 49.2188ZM247.734 321.562V246.094H376.591L444.609 212.085V246.094H592.266V321.562C592.266 416.55 514.987 493.828 420 493.828C325.013 493.828 247.734 416.55 247.734 321.562ZM420 543.047C445.876 543.047 470.725 538.571 493.828 530.378V559.104C485.561 567.371 426.41 626.522 420 632.932C413.421 626.353 354.326 567.258 346.172 559.104V530.378C369.275 538.571 394.124 543.047 420 543.047Z" fill="#F7FBFD"/>
</svg>
